<svg id="svg" version="1.1" width="400" height="400" viewBox="0 0 400 400" xmlns="http://www.w3.org/2000/svg" xmlns:xlink="http://www.w3.org/1999/xlink" ><g id="svgg"><path id="path0" d="M190.580 83.577 C 190.371 83.785,188.760 84.245,187.000 84.600 C 160.834 89.882,140.472 109.636,134.019 136.000 C 132.743 141.213,132.642 142.808,132.425 161.115 C 132.189 180.985,132.210 180.773,130.490 180.794 C 125.975 180.848,118.291 188.978,116.630 195.458 C 115.674 199.187,115.674 297.628,116.630 301.317 C 117.875 306.122,121.743 311.761,124.897 313.371 C 125.614 313.737,127.370 314.657,128.800 315.416 L 131.400 316.795 200.400 316.795 L 269.400 316.795 272.000 315.416 C 273.430 314.657,275.186 313.737,275.903 313.371 C 279.103 311.738,282.907 306.189,284.171 301.310 C 285.228 297.233,285.108 198.432,284.042 194.927 C 282.036 188.333,277.333 183.248,271.272 181.123 C 270.022 180.685,268.910 180.238,268.800 180.131 C 268.690 180.023,268.499 171.444,268.375 161.067 C 268.136 140.979,268.106 140.642,265.776 132.200 C 260.144 111.797,241.597 92.577,222.000 86.834 C 221.010 86.544,219.390 86.069,218.400 85.779 C 215.208 84.845,213.325 84.400,212.554 84.398 C 212.139 84.396,211.284 84.126,210.654 83.798 C 209.318 83.101,191.259 82.903,190.580 83.577 M212.200 92.371 C 219.945 94.066,224.615 95.878,231.733 99.947 C 240.456 104.934,250.225 115.685,254.643 125.160 C 256.511 129.165,256.745 129.757,257.742 133.000 C 260.476 141.895,260.800 145.174,260.800 163.913 L 260.800 179.585 259.895 179.812 C 259.398 179.937,257.643 179.985,255.995 179.919 L 253.000 179.800 252.758 163.400 C 252.443 142.078,251.784 138.089,246.955 128.278 C 238.049 110.184,221.209 99.843,200.600 99.812 C 192.450 99.799,189.041 100.287,183.200 102.304 C 167.220 107.821,154.747 121.311,150.008 138.200 C 148.584 143.275,148.282 147.141,148.042 163.400 L 147.800 179.800 144.805 179.919 C 143.157 179.985,141.402 179.937,140.905 179.812 L 140.000 179.585 140.000 163.913 C 140.000 148.418,140.259 143.995,141.473 138.800 C 146.321 118.039,159.830 102.483,179.600 94.898 C 188.934 91.316,202.558 90.260,212.200 92.371 M206.800 107.746 C 225.312 110.563,239.371 123.883,243.801 142.800 C 244.725 146.745,245.247 178.379,244.405 179.394 C 243.961 179.929,238.783 180.000,200.400 180.000 C 162.017 180.000,156.839 179.929,156.395 179.394 C 155.553 178.379,156.075 146.745,156.999 142.800 C 162.525 119.204,183.781 104.242,206.800 107.746 M228.800 196.600 C 229.052 207.189,230.188 210.417,235.265 214.983 C 240.306 219.514,242.627 219.968,260.867 219.986 C 268.934 219.994,275.819 220.109,276.167 220.243 C 276.998 220.561,277.146 259.494,276.320 260.320 C 275.986 260.654,273.871 260.800,269.378 260.800 C 261.714 260.800,260.800 261.195,260.800 264.511 C 260.800 267.803,261.630 268.164,269.731 268.400 L 276.600 268.600 276.716 272.164 C 276.781 274.123,276.673 275.887,276.477 276.083 C 276.281 276.279,269.922 276.426,262.346 276.411 C 245.759 276.376,244.800 276.599,244.800 280.497 C 244.800 284.551,245.830 284.800,262.595 284.800 L 276.829 284.800 276.714 288.700 L 276.600 292.600 269.811 292.710 C 261.787 292.840,260.800 293.276,260.800 296.693 C 260.800 300.019,261.643 300.400,268.994 300.400 C 275.692 300.400,275.999 300.500,275.261 302.439 C 274.703 303.907,271.799 306.630,269.678 307.675 L 267.800 308.600 200.200 308.600 L 132.600 308.600 130.472 307.421 C 128.097 306.106,126.448 304.406,125.102 301.889 L 124.200 300.200 124.200 276.400 L 124.200 252.600 130.840 252.400 C 138.631 252.165,139.957 251.596,139.987 248.474 C 140.020 245.076,138.538 244.400,131.053 244.400 C 123.533 244.400,124.000 244.662,124.000 240.437 C 124.000 235.618,122.674 236.002,139.380 235.987 C 150.084 235.978,153.964 235.849,154.435 235.487 C 156.249 234.094,156.489 231.442,154.964 229.631 L 153.929 228.400 139.597 228.400 C 122.361 228.400,124.000 228.841,124.000 224.200 C 124.000 219.687,123.444 220.000,131.463 220.000 L 137.662 220.000 138.831 218.831 C 140.866 216.795,140.360 214.213,137.600 212.560 C 137.270 212.362,134.120 212.110,130.600 212.000 L 124.200 211.800 124.212 204.200 C 124.227 194.584,125.528 191.647,130.933 189.029 L 133.000 188.027 180.800 188.114 L 228.600 188.200 228.800 196.600 M270.253 189.185 C 275.528 192.211,276.532 194.596,276.570 204.200 L 276.600 211.800 261.144 211.905 C 242.234 212.033,240.767 211.616,237.682 205.237 C 236.622 203.045,235.779 190.595,236.554 188.576 C 236.741 188.088,239.184 188.001,252.487 188.004 L 268.200 188.008 270.253 189.185 M198.387 212.900 C 196.457 214.204,196.392 214.785,196.425 230.359 C 196.457 244.990,196.438 245.175,194.883 245.194 C 191.598 245.233,184.568 251.180,182.484 255.682 C 174.448 273.043,191.852 290.662,209.000 282.527 C 221.562 276.567,224.306 260.279,214.414 250.386 C 211.946 247.918,207.499 245.215,205.872 245.194 C 204.369 245.174,204.343 244.921,204.375 230.359 C 204.411 213.692,204.044 212.000,200.400 212.000 C 200.025 212.000,199.119 212.405,198.387 212.900 M205.326 253.364 C 210.874 255.943,214.220 263.669,211.848 268.424 C 211.492 269.138,211.200 269.946,211.200 270.218 C 211.200 271.242,206.926 274.997,204.955 275.703 C 196.376 278.778,187.960 272.701,188.506 263.825 C 189.035 255.218,197.709 249.824,205.326 253.364 " stroke="none" fill="#f8f9fc" fill-rule="evenodd"></path><path id="path1" d="M178.500 0.274 C 176.465 0.360,174.800 0.603,174.800 0.815 C 174.800 1.027,173.540 1.200,172.000 1.200 C 170.400 1.200,169.200 1.371,169.200 1.600 C 169.200 1.820,168.221 2.000,167.024 2.000 C 165.827 2.000,164.736 2.180,164.600 2.400 C 164.464 2.620,163.463 2.800,162.376 2.800 C 161.289 2.800,160.400 2.980,160.400 3.200 C 160.400 3.420,159.500 3.600,158.400 3.600 C 157.300 3.600,156.400 3.780,156.400 4.000 C 156.400 4.220,155.680 4.400,154.800 4.400 C 153.920 4.400,153.200 4.580,153.200 4.800 C 153.200 5.020,152.480 5.200,151.600 5.200 C 150.720 5.200,150.000 5.380,150.000 5.600 C 150.000 5.820,149.280 6.000,148.400 6.000 C 147.520 6.000,146.800 6.180,146.800 6.400 C 146.800 6.620,146.271 6.800,145.624 6.800 C 144.977 6.800,144.336 6.980,144.200 7.200 C 144.064 7.420,143.333 7.600,142.576 7.600 C 141.819 7.600,141.200 7.780,141.200 8.000 C 141.200 8.220,140.660 8.400,140.000 8.400 C 139.340 8.400,138.800 8.580,138.800 8.800 C 138.800 9.020,138.260 9.200,137.600 9.200 C 136.940 9.200,136.400 9.380,136.400 9.600 C 136.400 9.820,135.860 10.000,135.200 10.000 C 134.540 10.000,134.000 10.180,134.000 10.400 C 134.000 10.620,133.638 10.800,133.195 10.800 C 132.752 10.800,132.032 10.980,131.595 11.200 C 131.158 11.420,130.442 11.780,130.005 12.000 C 129.568 12.220,128.848 12.400,128.405 12.400 C 127.962 12.400,127.600 12.580,127.600 12.800 C 127.600 13.020,127.251 13.200,126.824 13.200 C 126.397 13.200,125.936 13.380,125.800 13.600 C 125.664 13.820,125.113 14.000,124.576 14.000 C 124.039 14.000,123.600 14.180,123.600 14.400 C 123.600 14.620,123.240 14.800,122.800 14.800 C 122.360 14.800,122.000 14.980,122.000 15.200 C 122.000 15.420,121.561 15.600,121.024 15.600 C 120.487 15.600,119.936 15.780,119.800 16.000 C 119.664 16.220,119.203 16.400,118.776 16.400 C 118.349 16.400,118.000 16.580,118.000 16.800 C 118.000 17.020,117.640 17.200,117.200 17.200 C 116.760 17.200,116.400 17.380,116.400 17.600 C 116.400 17.820,116.040 18.000,115.600 18.000 C 115.160 18.000,114.800 18.180,114.800 18.400 C 114.800 18.620,114.440 18.800,114.000 18.800 C 113.560 18.800,113.200 18.980,113.200 19.200 C 113.200 19.420,112.840 19.600,112.400 19.600 C 111.960 19.600,111.600 19.780,111.600 20.000 C 111.600 20.220,111.240 20.400,110.800 20.400 C 110.360 20.400,110.000 20.580,110.000 20.800 C 110.000 21.020,109.640 21.200,109.200 21.200 C 108.760 21.200,108.400 21.380,108.400 21.600 C 108.400 21.820,108.040 22.000,107.600 22.000 C 107.160 22.000,106.800 22.180,106.800 22.400 C 106.800 22.620,106.440 22.800,106.000 22.800 C 105.560 22.800,105.200 22.980,105.200 23.200 C 105.200 23.420,104.840 23.600,104.400 23.600 C 103.960 23.600,103.600 23.780,103.600 24.000 C 103.600 24.220,103.364 24.400,103.075 24.400 C 102.787 24.400,102.164 24.760,101.692 25.200 C 101.220 25.640,100.556 26.000,100.217 26.000 C 99.878 26.000,99.600 26.180,99.600 26.400 C 99.600 26.620,99.364 26.800,99.075 26.800 C 98.787 26.800,98.164 27.160,97.692 27.600 C 97.220 28.040,96.556 28.400,96.217 28.400 C 95.878 28.400,95.600 28.580,95.600 28.800 C 95.600 29.020,95.364 29.200,95.075 29.200 C 94.787 29.200,94.202 29.515,93.775 29.900 C 93.349 30.285,92.505 30.855,91.900 31.168 C 91.295 31.480,90.800 31.885,90.800 32.068 C 90.800 32.250,90.480 32.400,90.088 32.400 C 89.697 32.400,89.117 32.760,88.800 33.200 C 88.483 33.640,88.038 34.000,87.812 34.001 C 87.585 34.001,86.770 34.541,86.000 35.200 C 85.230 35.859,84.415 36.399,84.188 36.399 C 83.962 36.400,83.517 36.760,83.200 37.200 C 82.883 37.640,82.420 38.000,82.171 38.000 C 81.922 38.000,81.154 38.540,80.463 39.200 C 79.772 39.860,79.047 40.400,78.852 40.400 C 78.656 40.400,77.755 41.120,76.848 42.000 C 75.941 42.880,75.038 43.600,74.840 43.600 C 74.643 43.600,73.605 44.457,72.535 45.505 C 71.465 46.553,69.962 47.858,69.195 48.403 C 67.380 49.695,52.095 64.980,50.803 66.795 C 50.258 67.562,48.953 69.065,47.905 70.135 C 46.857 71.205,46.000 72.243,46.000 72.440 C 46.000 72.638,45.280 73.541,44.400 74.448 C 43.520 75.355,42.800 76.256,42.800 76.452 C 42.800 76.647,42.260 77.372,41.600 78.063 C 40.940 78.754,40.400 79.474,40.400 79.663 C 40.400 79.852,39.860 80.572,39.200 81.263 C 38.540 81.954,38.000 82.762,38.000 83.059 C 38.000 83.357,37.850 83.600,37.668 83.600 C 37.485 83.600,37.081 84.095,36.770 84.700 C 36.460 85.305,35.889 86.091,35.503 86.447 C 35.116 86.803,34.800 87.388,34.800 87.747 C 34.800 88.106,34.650 88.400,34.468 88.400 C 34.285 88.400,33.880 88.895,33.568 89.500 C 33.255 90.105,32.685 90.949,32.300 91.375 C 31.915 91.802,31.600 92.387,31.600 92.675 C 31.600 92.964,31.420 93.200,31.200 93.200 C 30.980 93.200,30.800 93.478,30.800 93.817 C 30.800 94.156,30.440 94.820,30.000 95.292 C 29.560 95.764,29.200 96.387,29.200 96.675 C 29.200 96.964,29.020 97.200,28.800 97.200 C 28.580 97.200,28.400 97.560,28.400 98.000 C 28.400 98.440,28.220 98.800,28.000 98.800 C 27.780 98.800,27.600 99.036,27.600 99.325 C 27.600 99.613,27.240 100.236,26.800 100.708 C 26.360 101.180,26.000 101.844,26.000 102.183 C 26.000 102.522,25.820 102.800,25.600 102.800 C 25.380 102.800,25.200 103.160,25.200 103.600 C 25.200 104.040,25.020 104.400,24.800 104.400 C 24.580 104.400,24.400 104.760,24.400 105.200 C 24.400 105.640,24.220 106.000,24.000 106.000 C 23.780 106.000,23.600 106.360,23.600 106.800 C 23.600 107.240,23.420 107.600,23.200 107.600 C 22.980 107.600,22.800 107.960,22.800 108.400 C 22.800 108.840,22.620 109.200,22.400 109.200 C 22.180 109.200,22.000 109.560,22.000 110.000 C 22.000 110.440,21.820 110.800,21.600 110.800 C 21.380 110.800,21.200 111.160,21.200 111.600 C 21.200 112.040,21.020 112.400,20.800 112.400 C 20.580 112.400,20.400 112.760,20.400 113.200 C 20.400 113.640,20.220 114.000,20.000 114.000 C 19.780 114.000,19.600 114.360,19.600 114.800 C 19.600 115.240,19.420 115.600,19.200 115.600 C 18.980 115.600,18.800 115.949,18.800 116.376 C 18.800 116.803,18.620 117.264,18.400 117.400 C 18.180 117.536,18.000 118.087,18.000 118.624 C 18.000 119.161,17.820 119.600,17.600 119.600 C 17.380 119.600,17.200 119.960,17.200 120.400 C 17.200 120.840,17.020 121.200,16.800 121.200 C 16.580 121.200,16.400 121.639,16.400 122.176 C 16.400 122.713,16.220 123.264,16.000 123.400 C 15.780 123.536,15.600 123.997,15.600 124.424 C 15.600 124.851,15.420 125.200,15.200 125.200 C 14.980 125.200,14.800 125.740,14.800 126.400 C 14.800 127.060,14.620 127.600,14.400 127.600 C 14.180 127.600,14.000 127.949,14.000 128.376 C 14.000 128.803,13.820 129.264,13.600 129.400 C 13.380 129.536,13.200 130.087,13.200 130.624 C 13.200 131.161,13.020 131.600,12.800 131.600 C 12.580 131.600,12.400 132.140,12.400 132.800 C 12.400 133.460,12.220 134.000,12.000 134.000 C 11.780 134.000,11.600 134.540,11.600 135.200 C 11.600 135.860,11.420 136.400,11.200 136.400 C 10.980 136.400,10.800 136.929,10.800 137.576 C 10.800 138.223,10.620 138.864,10.400 139.000 C 10.180 139.136,10.000 139.766,10.000 140.400 C 10.000 141.034,9.820 141.664,9.600 141.800 C 9.380 141.936,9.200 142.577,9.200 143.224 C 9.200 143.871,9.020 144.400,8.800 144.400 C 8.580 144.400,8.400 145.120,8.400 146.000 C 8.400 146.880,8.220 147.600,8.000 147.600 C 7.780 147.600,7.600 148.320,7.600 149.200 C 7.600 150.080,7.420 150.800,7.200 150.800 C 6.980 150.800,6.800 151.520,6.800 152.400 C 6.800 153.280,6.620 154.000,6.400 154.000 C 6.180 154.000,6.000 154.900,6.000 156.000 C 6.000 157.100,5.820 158.000,5.600 158.000 C 5.380 158.000,5.200 158.900,5.200 160.000 C 5.200 161.100,5.020 162.000,4.800 162.000 C 4.578 162.000,4.400 163.067,4.400 164.400 C 4.400 165.733,4.222 166.800,4.000 166.800 C 3.771 166.800,3.600 168.000,3.600 169.600 C 3.600 171.200,3.429 172.400,3.200 172.400 C 2.962 172.400,2.800 173.925,2.800 176.176 C 2.800 178.263,2.621 180.063,2.400 180.200 C 1.851 180.539,1.851 215.461,2.400 215.800 C 2.621 215.937,2.800 217.737,2.800 219.824 C 2.800 222.075,2.962 223.600,3.200 223.600 C 3.429 223.600,3.600 224.800,3.600 226.400 C 3.600 228.000,3.771 229.200,4.000 229.200 C 4.222 229.200,4.400 230.267,4.400 231.600 C 4.400 232.933,4.578 234.000,4.800 234.000 C 5.020 234.000,5.200 234.900,5.200 236.000 C 5.200 237.100,5.380 238.000,5.600 238.000 C 5.820 238.000,6.000 238.900,6.000 240.000 C 6.000 241.100,6.180 242.000,6.400 242.000 C 6.620 242.000,6.800 242.720,6.800 243.600 C 6.800 244.480,6.980 245.200,7.200 245.200 C 7.420 245.200,7.600 245.920,7.600 246.800 C 7.600 247.680,7.780 248.400,8.000 248.400 C 8.220 248.400,8.400 249.120,8.400 250.000 C 8.400 250.880,8.580 251.600,8.800 251.600 C 9.020 251.600,9.200 252.129,9.200 252.776 C 9.200 253.423,9.380 254.064,9.600 254.200 C 9.820 254.336,10.000 255.067,10.000 255.824 C 10.000 256.581,10.180 257.200,10.400 257.200 C 10.620 257.200,10.800 257.740,10.800 258.400 C 10.800 259.060,10.980 259.600,11.200 259.600 C 11.420 259.600,11.600 260.140,11.600 260.800 C 11.600 261.460,11.780 262.000,12.000 262.000 C 12.220 262.000,12.400 262.540,12.400 263.200 C 12.400 263.860,12.580 264.400,12.800 264.400 C 13.020 264.400,13.200 264.762,13.200 265.205 C 13.200 265.648,13.380 266.368,13.600 266.805 C 13.820 267.242,14.180 267.958,14.400 268.395 C 14.620 268.832,14.800 269.552,14.800 269.995 C 14.800 270.438,14.980 270.800,15.200 270.800 C 15.420 270.800,15.600 271.149,15.600 271.576 C 15.600 272.003,15.780 272.464,16.000 272.600 C 16.220 272.736,16.400 273.287,16.400 273.824 C 16.400 274.361,16.580 274.800,16.800 274.800 C 17.020 274.800,17.200 275.160,17.200 275.600 C 17.200 276.040,17.380 276.400,17.600 276.400 C 17.820 276.400,18.000 276.839,18.000 277.376 C 18.000 277.913,18.180 278.464,18.400 278.600 C 18.620 278.736,18.800 279.197,18.800 279.624 C 18.800 280.051,18.980 280.400,19.200 280.400 C 19.420 280.400,19.600 280.760,19.600 281.200 C 19.600 281.640,19.780 282.000,20.000 282.000 C 20.220 282.000,20.400 282.360,20.400 282.800 C 20.400 283.240,20.580 283.600,20.800 283.600 C 21.020 283.600,21.200 283.960,21.200 284.400 C 21.200 284.840,21.380 285.200,21.600 285.200 C 21.820 285.200,22.000 285.560,22.000 286.000 C 22.000 286.440,22.180 286.800,22.400 286.800 C 22.620 286.800,22.800 287.160,22.800 287.600 C 22.800 288.040,22.980 288.400,23.200 288.400 C 23.420 288.400,23.600 288.760,23.600 289.200 C 23.600 289.640,23.780 290.000,24.000 290.000 C 24.220 290.000,24.400 290.360,24.400 290.800 C 24.400 291.240,24.580 291.600,24.800 291.600 C 25.020 291.600,25.200 291.960,25.200 292.400 C 25.200 292.840,25.380 293.200,25.600 293.200 C 25.820 293.200,26.000 293.478,26.000 293.817 C 26.000 294.156,26.360 294.820,26.800 295.292 C 27.240 295.764,27.600 296.387,27.600 296.675 C 27.600 296.964,27.780 297.200,28.000 297.200 C 28.220 297.200,28.400 297.560,28.400 298.000 C 28.400 298.440,28.580 298.800,28.800 298.800 C 29.020 298.800,29.200 299.036,29.200 299.325 C 29.200 299.613,29.560 300.236,30.000 300.708 C 30.440 301.180,30.800 301.844,30.800 302.183 C 30.800 302.522,30.980 302.800,31.200 302.800 C 31.420 302.800,31.600 303.036,31.600 303.325 C 31.600 303.613,31.915 304.198,32.300 304.625 C 32.685 305.051,33.255 305.895,33.568 306.500 C 33.880 307.105,34.285 307.600,34.468 307.600 C 34.650 307.600,34.800 307.894,34.800 308.253 C 34.800 308.612,35.116 309.197,35.503 309.553 C 35.889 309.909,36.460 310.695,36.770 311.300 C 37.081 311.905,37.485 312.400,37.668 312.400 C 37.850 312.400,38.000 312.643,38.000 312.941 C 38.000 313.238,38.540 314.046,39.200 314.737 C 39.860 315.428,40.400 316.148,40.400 316.337 C 40.400 316.526,40.940 317.246,41.600 317.937 C 42.260 318.628,42.800 319.353,42.800 319.548 C 42.800 319.744,43.520 320.645,44.400 321.552 C 45.280 322.459,46.000 323.362,46.000 323.560 C 46.000 323.757,46.900 324.838,48.000 325.961 C 49.100 327.085,50.000 328.169,50.000 328.371 C 50.000 328.879,67.472 346.384,69.195 347.603 C 69.962 348.145,71.465 349.447,72.535 350.495 C 73.605 351.543,74.643 352.400,74.840 352.400 C 75.038 352.400,75.941 353.120,76.848 354.000 C 77.755 354.880,78.656 355.600,78.852 355.600 C 79.047 355.600,79.772 356.140,80.463 356.800 C 81.154 357.460,81.922 358.000,82.171 358.000 C 82.420 358.000,82.883 358.360,83.200 358.800 C 83.517 359.240,83.962 359.600,84.188 359.601 C 84.415 359.601,85.230 360.141,86.000 360.800 C 86.770 361.459,87.585 361.999,87.812 361.999 C 88.038 362.000,88.483 362.360,88.800 362.800 C 89.117 363.240,89.657 363.600,90.000 363.600 C 90.343 363.600,90.883 363.960,91.200 364.400 C 91.517 364.840,92.014 365.200,92.305 365.200 C 92.596 365.200,93.220 365.560,93.692 366.000 C 94.164 366.440,94.787 366.800,95.075 366.800 C 95.364 366.800,95.600 366.980,95.600 367.200 C 95.600 367.420,95.878 367.600,96.217 367.600 C 96.556 367.600,97.220 367.960,97.692 368.400 C 98.164 368.840,98.787 369.200,99.075 369.200 C 99.364 369.200,99.600 369.380,99.600 369.600 C 99.600 369.820,99.878 370.000,100.217 370.000 C 100.556 370.000,101.220 370.360,101.692 370.800 C 102.164 371.240,102.787 371.600,103.075 371.600 C 103.364 371.600,103.600 371.780,103.600 372.000 C 103.600 372.220,103.960 372.400,104.400 372.400 C 104.840 372.400,105.200 372.580,105.200 372.800 C 105.200 373.020,105.560 373.200,106.000 373.200 C 106.440 373.200,106.800 373.380,106.800 373.600 C 106.800 373.820,107.160 374.000,107.600 374.000 C 108.040 374.000,108.400 374.180,108.400 374.400 C 108.400 374.620,108.760 374.800,109.200 374.800 C 109.640 374.800,110.000 374.980,110.000 375.200 C 110.000 375.420,110.360 375.600,110.800 375.600 C 111.240 375.600,111.600 375.780,111.600 376.000 C 111.600 376.220,111.960 376.400,112.400 376.400 C 112.840 376.400,113.200 376.580,113.200 376.800 C 113.200 377.020,113.560 377.200,114.000 377.200 C 114.440 377.200,114.800 377.380,114.800 377.600 C 114.800 377.820,115.160 378.000,115.600 378.000 C 116.040 378.000,116.400 378.180,116.400 378.400 C 116.400 378.620,116.760 378.800,117.200 378.800 C 117.640 378.800,118.000 378.980,118.000 379.200 C 118.000 379.420,118.349 379.600,118.776 379.600 C 119.203 379.600,119.664 379.780,119.800 380.000 C 119.936 380.220,120.487 380.400,121.024 380.400 C 121.561 380.400,122.000 380.580,122.000 380.800 C 122.000 381.020,122.360 381.200,122.800 381.200 C 123.240 381.200,123.600 381.380,123.600 381.600 C 123.600 381.820,124.039 382.000,124.576 382.000 C 125.113 382.000,125.664 382.180,125.800 382.400 C 125.936 382.620,126.397 382.800,126.824 382.800 C 127.251 382.800,127.600 382.980,127.600 383.200 C 127.600 383.420,127.962 383.600,128.405 383.600 C 129.183 383.600,129.569 383.742,131.495 384.738 C 131.987 384.992,132.752 385.200,133.195 385.200 C 133.638 385.200,134.000 385.380,134.000 385.600 C 134.000 385.820,134.540 386.000,135.200 386.000 C 135.860 386.000,136.400 386.180,136.400 386.400 C 136.400 386.620,136.940 386.800,137.600 386.800 C 138.260 386.800,138.800 386.980,138.800 387.200 C 138.800 387.420,139.340 387.600,140.000 387.600 C 140.660 387.600,141.200 387.780,141.200 388.000 C 141.200 388.220,141.819 388.400,142.576 388.400 C 143.333 388.400,144.064 388.580,144.200 388.800 C 144.336 389.020,144.977 389.200,145.624 389.200 C 146.271 389.200,146.800 389.380,146.800 389.600 C 146.800 389.820,147.520 390.000,148.400 390.000 C 149.280 390.000,150.000 390.180,150.000 390.400 C 150.000 390.620,150.720 390.800,151.600 390.800 C 152.480 390.800,153.200 390.980,153.200 391.200 C 153.200 391.420,153.920 391.600,154.800 391.600 C 155.680 391.600,156.400 391.780,156.400 392.000 C 156.400 392.220,157.300 392.400,158.400 392.400 C 159.500 392.400,160.400 392.580,160.400 392.800 C 160.400 393.020,161.289 393.200,162.376 393.200 C 163.463 393.200,164.464 393.380,164.600 393.600 C 164.736 393.820,165.827 394.000,167.024 394.000 C 168.221 394.000,169.200 394.180,169.200 394.400 C 169.200 394.629,170.400 394.800,172.000 394.800 C 173.600 394.800,174.800 394.971,174.800 395.200 C 174.800 395.438,176.325 395.600,178.576 395.600 C 180.663 395.600,182.463 395.779,182.600 396.000 C 182.939 396.549,218.261 396.549,218.600 396.000 C 218.736 395.780,220.457 395.600,222.424 395.600 C 224.541 395.600,226.000 395.437,226.000 395.200 C 226.000 394.971,227.200 394.800,228.800 394.800 C 230.400 394.800,231.600 394.629,231.600 394.400 C 231.600 394.178,232.667 394.000,234.000 394.000 C 235.333 394.000,236.400 393.822,236.400 393.600 C 236.400 393.380,237.300 393.200,238.400 393.200 C 239.500 393.200,240.400 393.020,240.400 392.800 C 240.400 392.580,241.300 392.400,242.400 392.400 C 243.500 392.400,244.400 392.220,244.400 392.000 C 244.400 391.780,245.120 391.600,246.000 391.600 C 246.880 391.600,247.600 391.420,247.600 391.200 C 247.600 390.980,248.320 390.800,249.200 390.800 C 250.080 390.800,250.800 390.620,250.800 390.400 C 250.800 390.180,251.520 390.000,252.400 390.000 C 253.280 390.000,254.000 389.820,254.000 389.600 C 254.000 389.380,254.529 389.200,255.176 389.200 C 255.823 389.200,256.464 389.020,256.600 388.800 C 256.736 388.580,257.467 388.400,258.224 388.400 C 258.981 388.400,259.600 388.220,259.600 388.000 C 259.600 387.780,260.140 387.600,260.800 387.600 C 261.460 387.600,262.000 387.420,262.000 387.200 C 262.000 386.980,262.540 386.800,263.200 386.800 C 263.860 386.800,264.400 386.620,264.400 386.400 C 264.400 386.180,264.940 386.000,265.600 386.000 C 266.260 386.000,266.800 385.820,266.800 385.600 C 266.800 385.380,267.162 385.200,267.605 385.200 C 268.048 385.200,268.768 385.020,269.205 384.800 C 269.642 384.580,270.358 384.220,270.795 384.000 C 271.232 383.780,271.952 383.600,272.395 383.600 C 272.838 383.600,273.200 383.420,273.200 383.200 C 273.200 382.980,273.549 382.800,273.976 382.800 C 274.403 382.800,274.864 382.620,275.000 382.400 C 275.136 382.180,275.687 382.000,276.224 382.000 C 276.761 382.000,277.200 381.820,277.200 381.600 C 277.200 381.380,277.560 381.200,278.000 381.200 C 278.440 381.200,278.800 381.020,278.800 380.800 C 278.800 380.580,279.239 380.400,279.776 380.400 C 280.313 380.400,280.864 380.220,281.000 380.000 C 281.136 379.780,281.597 379.600,282.024 379.600 C 282.451 379.600,282.800 379.420,282.800 379.200 C 282.800 378.980,283.160 378.800,283.600 378.800 C 284.040 378.800,284.400 378.620,284.400 378.400 C 284.400 378.180,284.760 378.000,285.200 378.000 C 285.640 378.000,286.000 377.820,286.000 377.600 C 286.000 377.380,286.360 377.200,286.800 377.200 C 287.240 377.200,287.600 377.020,287.600 376.800 C 287.600 376.580,287.960 376.400,288.400 376.400 C 288.840 376.400,289.200 376.220,289.200 376.000 C 289.200 375.780,289.560 375.600,290.000 375.600 C 290.440 375.600,290.800 375.420,290.800 375.200 C 290.800 374.980,291.160 374.800,291.600 374.800 C 292.040 374.800,292.400 374.620,292.400 374.400 C 292.400 374.180,292.760 374.000,293.200 374.000 C 293.640 374.000,294.000 373.820,294.000 373.600 C 294.000 373.380,294.360 373.200,294.800 373.200 C 295.240 373.200,295.600 373.020,295.600 372.800 C 295.600 372.580,295.960 372.400,296.400 372.400 C 296.840 372.400,297.200 372.220,297.200 372.000 C 297.200 371.780,297.436 371.600,297.725 371.600 C 298.013 371.600,298.636 371.240,299.108 370.800 C 299.580 370.360,300.244 370.000,300.583 370.000 C 300.922 370.000,301.200 369.820,301.200 369.600 C 301.200 369.380,301.436 369.200,301.725 369.200 C 302.013 369.200,302.636 368.840,303.108 368.400 C 303.580 367.960,304.244 367.600,304.583 367.600 C 304.922 367.600,305.200 367.420,305.200 367.200 C 305.200 366.980,305.436 366.800,305.725 366.800 C 306.013 366.800,306.636 366.440,307.108 366.000 C 307.580 365.560,308.204 365.200,308.495 365.200 C 308.786 365.200,309.283 364.840,309.600 364.400 C 309.917 363.960,310.457 363.600,310.800 363.600 C 311.143 363.600,311.683 363.240,312.000 362.800 C 312.317 362.360,312.762 362.000,312.988 361.999 C 313.215 361.999,314.030 361.459,314.800 360.800 C 315.570 360.141,316.385 359.601,316.612 359.601 C 316.838 359.600,317.283 359.240,317.600 358.800 C 317.917 358.360,318.380 358.000,318.629 358.000 C 318.878 358.000,319.646 357.460,320.337 356.800 C 321.028 356.140,321.753 355.600,321.948 355.600 C 322.144 355.600,323.045 354.880,323.952 354.000 C 324.859 353.120,325.762 352.400,325.960 352.400 C 326.157 352.400,327.195 351.543,328.265 350.495 C 329.335 349.447,330.838 348.145,331.605 347.603 C 333.328 346.384,350.800 328.879,350.800 328.371 C 350.800 328.169,351.700 327.085,352.800 325.961 C 353.900 324.838,354.800 323.757,354.800 323.560 C 354.800 323.362,355.520 322.459,356.400 321.552 C 357.280 320.645,358.000 319.744,358.000 319.548 C 358.000 319.353,358.540 318.628,359.200 317.937 C 359.860 317.246,360.400 316.526,360.400 316.337 C 360.400 316.148,360.940 315.428,361.600 314.737 C 362.260 314.046,362.800 313.238,362.800 312.941 C 362.800 312.643,362.950 312.400,363.132 312.400 C 363.315 312.400,363.719 311.905,364.030 311.300 C 364.340 310.695,364.911 309.909,365.297 309.553 C 365.684 309.197,366.000 308.652,366.000 308.341 C 366.000 308.031,366.360 307.517,366.800 307.200 C 367.240 306.883,367.600 306.386,367.600 306.095 C 367.600 305.804,367.960 305.180,368.400 304.708 C 368.840 304.236,369.200 303.613,369.200 303.325 C 369.200 303.036,369.380 302.800,369.600 302.800 C 369.820 302.800,370.000 302.522,370.000 302.183 C 370.000 301.844,370.360 301.180,370.800 300.708 C 371.240 300.236,371.600 299.613,371.600 299.325 C 371.600 299.036,371.780 298.800,372.000 298.800 C 372.220 298.800,372.400 298.440,372.400 298.000 C 372.400 297.560,372.580 297.200,372.800 297.200 C 373.020 297.200,373.200 296.964,373.200 296.675 C 373.200 296.387,373.560 295.764,374.000 295.292 C 374.440 294.820,374.800 294.156,374.800 293.817 C 374.800 293.478,374.980 293.200,375.200 293.200 C 375.420 293.200,375.600 292.840,375.600 292.400 C 375.600 291.960,375.780 291.600,376.000 291.600 C 376.220 291.600,376.400 291.240,376.400 290.800 C 376.400 290.360,376.580 290.000,376.800 290.000 C 377.020 290.000,377.200 289.640,377.200 289.200 C 377.200 288.760,377.380 288.400,377.600 288.400 C 377.820 288.400,378.000 288.040,378.000 287.600 C 378.000 287.160,378.180 286.800,378.400 286.800 C 378.620 286.800,378.800 286.440,378.800 286.000 C 378.800 285.560,378.980 285.200,379.200 285.200 C 379.420 285.200,379.600 284.840,379.600 284.400 C 379.600 283.960,379.780 283.600,380.000 283.600 C 380.220 283.600,380.400 283.240,380.400 282.800 C 380.400 282.360,380.580 282.000,380.800 282.000 C 381.020 282.000,381.200 281.640,381.200 281.200 C 381.200 280.760,381.380 280.400,381.600 280.400 C 381.820 280.400,382.000 280.051,382.000 279.624 C 382.000 279.197,382.180 278.736,382.400 278.600 C 382.620 278.464,382.800 277.913,382.800 277.376 C 382.800 276.839,382.980 276.400,383.200 276.400 C 383.420 276.400,383.600 276.040,383.600 275.600 C 383.600 275.160,383.780 274.800,384.000 274.800 C 384.220 274.800,384.400 274.361,384.400 273.824 C 384.400 273.287,384.580 272.736,384.800 272.600 C 385.020 272.464,385.200 272.003,385.200 271.576 C 385.200 271.149,385.380 270.800,385.600 270.800 C 385.820 270.800,386.000 270.438,386.000 269.995 C 386.000 269.552,386.180 268.832,386.400 268.395 C 386.620 267.958,386.980 267.242,387.200 266.805 C 387.420 266.368,387.600 265.648,387.600 265.205 C 387.600 264.762,387.780 264.400,388.000 264.400 C 388.220 264.400,388.400 263.860,388.400 263.200 C 388.400 262.540,388.580 262.000,388.800 262.000 C 389.020 262.000,389.200 261.460,389.200 260.800 C 389.200 260.140,389.380 259.600,389.600 259.600 C 389.820 259.600,390.000 259.060,390.000 258.400 C 390.000 257.740,390.180 257.200,390.400 257.200 C 390.620 257.200,390.800 256.581,390.800 255.824 C 390.800 255.067,390.980 254.336,391.200 254.200 C 391.420 254.064,391.600 253.423,391.600 252.776 C 391.600 252.129,391.780 251.600,392.000 251.600 C 392.220 251.600,392.400 250.880,392.400 250.000 C 392.400 249.120,392.580 248.400,392.800 248.400 C 393.020 248.400,393.200 247.680,393.200 246.800 C 393.200 245.920,393.380 245.200,393.600 245.200 C 393.820 245.200,394.000 244.480,394.000 243.600 C 394.000 242.720,394.180 242.000,394.400 242.000 C 394.620 242.000,394.800 241.100,394.800 240.000 C 394.800 238.900,394.980 238.000,395.200 238.000 C 395.420 238.000,395.600 237.100,395.600 236.000 C 395.600 234.900,395.780 234.000,396.000 234.000 C 396.222 234.000,396.400 232.933,396.400 231.600 C 396.400 230.267,396.578 229.200,396.800 229.200 C 397.029 229.200,397.200 228.000,397.200 226.400 C 397.200 224.800,397.371 223.600,397.600 223.600 C 397.838 223.600,398.000 222.075,398.000 219.824 C 398.000 217.737,398.179 215.937,398.400 215.800 C 398.949 215.461,398.949 180.539,398.400 180.200 C 398.179 180.063,398.000 178.263,398.000 176.176 C 398.000 173.925,397.838 172.400,397.600 172.400 C 397.371 172.400,397.200 171.200,397.200 169.600 C 397.200 168.000,397.029 166.800,396.800 166.800 C 396.578 166.800,396.400 165.733,396.400 164.400 C 396.400 163.067,396.222 162.000,396.000 162.000 C 395.780 162.000,395.600 161.100,395.600 160.000 C 395.600 158.900,395.420 158.000,395.200 158.000 C 394.980 158.000,394.800 157.100,394.800 156.000 C 394.800 154.900,394.620 154.000,394.400 154.000 C 394.180 154.000,394.000 153.280,394.000 152.400 C 394.000 151.520,393.820 150.800,393.600 150.800 C 393.380 150.800,393.200 150.080,393.200 149.200 C 393.200 148.320,393.020 147.600,392.800 147.600 C 392.580 147.600,392.400 146.880,392.400 146.000 C 392.400 145.120,392.220 144.400,392.000 144.400 C 391.780 144.400,391.600 143.871,391.600 143.224 C 391.600 142.577,391.420 141.936,391.200 141.800 C 390.980 141.664,390.800 140.933,390.800 140.176 C 390.800 139.419,390.620 138.800,390.400 138.800 C 390.180 138.800,390.000 138.260,390.000 137.600 C 390.000 136.940,389.820 136.400,389.600 136.400 C 389.380 136.400,389.200 135.860,389.200 135.200 C 389.200 134.540,389.020 134.000,388.800 134.000 C 388.580 134.000,388.400 133.460,388.400 132.800 C 388.400 132.140,388.220 131.600,388.000 131.600 C 387.780 131.600,387.600 131.238,387.600 130.795 C 387.600 130.352,387.420 129.632,387.200 129.195 C 386.980 128.758,386.620 128.042,386.400 127.605 C 386.180 127.168,386.000 126.448,386.000 126.005 C 386.000 125.562,385.820 125.200,385.600 125.200 C 385.380 125.200,385.200 124.851,385.200 124.424 C 385.200 123.997,385.020 123.536,384.800 123.400 C 384.580 123.264,384.400 122.713,384.400 122.176 C 384.400 121.639,384.220 121.200,384.000 121.200 C 383.780 121.200,383.600 120.840,383.600 120.400 C 383.600 119.960,383.420 119.600,383.200 119.600 C 382.980 119.600,382.800 119.161,382.800 118.624 C 382.800 118.087,382.620 117.536,382.400 117.400 C 382.180 117.264,382.000 116.803,382.000 116.376 C 382.000 115.949,381.820 115.600,381.600 115.600 C 381.380 115.600,381.200 115.240,381.200 114.800 C 381.200 114.360,381.020 114.000,380.800 114.000 C 380.580 114.000,380.400 113.640,380.400 113.200 C 380.400 112.760,380.220 112.400,380.000 112.400 C 379.780 112.400,379.600 112.040,379.600 111.600 C 379.600 111.160,379.420 110.800,379.200 110.800 C 378.980 110.800,378.800 110.440,378.800 110.000 C 378.800 109.560,378.620 109.200,378.400 109.200 C 378.180 109.200,378.000 108.840,378.000 108.400 C 378.000 107.960,377.820 107.600,377.600 107.600 C 377.380 107.600,377.200 107.240,377.200 106.800 C 377.200 106.360,377.020 106.000,376.800 106.000 C 376.580 106.000,376.400 105.640,376.400 105.200 C 376.400 104.760,376.220 104.400,376.000 104.400 C 375.780 104.400,375.600 104.040,375.600 103.600 C 375.600 103.160,375.420 102.800,375.200 102.800 C 374.980 102.800,374.800 102.522,374.800 102.183 C 374.800 101.844,374.440 101.180,374.000 100.708 C 373.560 100.236,373.200 99.613,373.200 99.325 C 373.200 99.036,373.020 98.800,372.800 98.800 C 372.580 98.800,372.400 98.440,372.400 98.000 C 372.400 97.560,372.220 97.200,372.000 97.200 C 371.780 97.200,371.600 96.964,371.600 96.675 C 371.600 96.387,371.240 95.764,370.800 95.292 C 370.360 94.820,370.000 94.156,370.000 93.817 C 370.000 93.478,369.820 93.200,369.600 93.200 C 369.380 93.200,369.200 92.964,369.200 92.675 C 369.200 92.387,368.885 91.802,368.500 91.375 C 368.115 90.949,367.545 90.105,367.232 89.500 C 366.920 88.895,366.515 88.400,366.332 88.400 C 366.150 88.400,366.000 88.106,366.000 87.747 C 366.000 87.388,365.684 86.803,365.297 86.447 C 364.911 86.091,364.340 85.305,364.030 84.700 C 363.719 84.095,363.315 83.600,363.132 83.600 C 362.950 83.600,362.800 83.357,362.800 83.059 C 362.800 82.762,362.260 81.954,361.600 81.263 C 360.940 80.572,360.400 79.852,360.400 79.663 C 360.400 79.474,359.860 78.754,359.200 78.063 C 358.540 77.372,358.000 76.647,358.000 76.452 C 358.000 76.256,357.280 75.355,356.400 74.448 C 355.520 73.541,354.800 72.638,354.800 72.440 C 354.800 72.243,353.943 71.205,352.895 70.135 C 351.847 69.065,350.542 67.562,349.997 66.795 C 348.705 64.980,333.420 49.695,331.605 48.403 C 330.838 47.858,329.335 46.553,328.265 45.505 C 327.195 44.457,326.157 43.600,325.960 43.600 C 325.762 43.600,324.859 42.880,323.952 42.000 C 323.045 41.120,322.144 40.400,321.948 40.400 C 321.753 40.400,321.028 39.860,320.337 39.200 C 319.646 38.540,318.878 38.000,318.629 38.000 C 318.380 38.000,317.917 37.640,317.600 37.200 C 317.283 36.760,316.838 36.400,316.612 36.399 C 316.385 36.399,315.570 35.859,314.800 35.200 C 314.030 34.541,313.215 34.001,312.988 34.001 C 312.762 34.000,312.317 33.640,312.000 33.200 C 311.683 32.760,311.103 32.400,310.712 32.400 C 310.320 32.400,310.000 32.250,310.000 32.068 C 310.000 31.885,309.505 31.480,308.900 31.168 C 308.295 30.855,307.451 30.285,307.025 29.900 C 306.598 29.515,306.013 29.200,305.725 29.200 C 305.436 29.200,305.200 29.020,305.200 28.800 C 305.200 28.580,304.922 28.400,304.583 28.400 C 304.244 28.400,303.580 28.040,303.108 27.600 C 302.636 27.160,302.013 26.800,301.725 26.800 C 301.436 26.800,301.200 26.620,301.200 26.400 C 301.200 26.180,300.922 26.000,300.583 26.000 C 300.244 26.000,299.580 25.640,299.108 25.200 C 298.636 24.760,298.013 24.400,297.725 24.400 C 297.436 24.400,297.200 24.220,297.200 24.000 C 297.200 23.780,296.840 23.600,296.400 23.600 C 295.960 23.600,295.600 23.420,295.600 23.200 C 295.600 22.980,295.240 22.800,294.800 22.800 C 294.360 22.800,294.000 22.620,294.000 22.400 C 294.000 22.180,293.640 22.000,293.200 22.000 C 292.760 22.000,292.400 21.820,292.400 21.600 C 292.400 21.380,292.040 21.200,291.600 21.200 C 291.160 21.200,290.800 21.020,290.800 20.800 C 290.800 20.580,290.440 20.400,290.000 20.400 C 289.560 20.400,289.200 20.220,289.200 20.000 C 289.200 19.780,288.840 19.600,288.400 19.600 C 287.960 19.600,287.600 19.420,287.600 19.200 C 287.600 18.980,287.240 18.800,286.800 18.800 C 286.360 18.800,286.000 18.620,286.000 18.400 C 286.000 18.180,285.640 18.000,285.200 18.000 C 284.760 18.000,284.400 17.820,284.400 17.600 C 284.400 17.380,284.040 17.200,283.600 17.200 C 283.160 17.200,282.800 17.020,282.800 16.800 C 282.800 16.580,282.451 16.400,282.024 16.400 C 281.597 16.400,281.136 16.220,281.000 16.000 C 280.864 15.780,280.313 15.600,279.776 15.600 C 279.239 15.600,278.800 15.420,278.800 15.200 C 278.800 14.980,278.440 14.800,278.000 14.800 C 277.560 14.800,277.200 14.620,277.200 14.400 C 277.200 14.180,276.761 14.000,276.224 14.000 C 275.687 14.000,275.136 13.820,275.000 13.600 C 274.864 13.380,274.403 13.200,273.976 13.200 C 273.549 13.200,273.200 13.020,273.200 12.800 C 273.200 12.580,272.838 12.400,272.395 12.400 C 271.617 12.400,271.231 12.258,269.305 11.262 C 268.813 11.008,268.048 10.800,267.605 10.800 C 267.162 10.800,266.800 10.620,266.800 10.400 C 266.800 10.180,266.260 10.000,265.600 10.000 C 264.940 10.000,264.400 9.820,264.400 9.600 C 264.400 9.380,263.860 9.200,263.200 9.200 C 262.540 9.200,262.000 9.020,262.000 8.800 C 262.000 8.580,261.460 8.400,260.800 8.400 C 260.140 8.400,259.600 8.220,259.600 8.000 C 259.600 7.780,258.981 7.600,258.224 7.600 C 257.467 7.600,256.736 7.420,256.600 7.200 C 256.464 6.980,255.823 6.800,255.176 6.800 C 254.529 6.800,254.000 6.620,254.000 6.400 C 254.000 6.180,253.280 6.000,252.400 6.000 C 251.520 6.000,250.800 5.820,250.800 5.600 C 250.800 5.380,250.080 5.200,249.200 5.200 C 248.320 5.200,247.600 5.020,247.600 4.800 C 247.600 4.580,246.880 4.400,246.000 4.400 C 245.120 4.400,244.400 4.220,244.400 4.000 C 244.400 3.780,243.500 3.600,242.400 3.600 C 241.300 3.600,240.400 3.420,240.400 3.200 C 240.400 2.980,239.500 2.800,238.400 2.800 C 237.300 2.800,236.400 2.620,236.400 2.400 C 236.400 2.178,235.333 2.000,234.000 2.000 C 232.667 2.000,231.600 1.822,231.600 1.600 C 231.600 1.372,230.411 1.200,228.833 1.200 C 227.013 1.200,226.011 1.033,225.904 0.712 C 225.743 0.230,187.874 -0.120,178.500 0.274 M210.654 83.798 C 211.284 84.126,212.139 84.396,212.554 84.398 C 213.325 84.400,215.208 84.845,218.400 85.779 C 219.390 86.069,221.010 86.544,222.000 86.834 C 241.597 92.577,260.144 111.797,265.776 132.200 C 268.106 140.642,268.136 140.979,268.375 161.067 C 268.499 171.444,268.690 180.023,268.800 180.131 C 268.910 180.238,270.022 180.685,271.272 181.123 C 277.333 183.248,282.036 188.333,284.042 194.927 C 285.108 198.432,285.228 297.233,284.171 301.310 C 282.907 306.189,279.103 311.738,275.903 313.371 C 275.186 313.737,273.430 314.657,272.000 315.416 L 269.400 316.795 200.400 316.795 L 131.400 316.795 128.800 315.416 C 127.370 314.657,125.614 313.737,124.897 313.371 C 121.743 311.761,117.875 306.122,116.630 301.317 C 115.674 297.628,115.674 199.187,116.630 195.458 C 118.291 188.978,125.975 180.848,130.490 180.794 C 132.210 180.773,132.189 180.985,132.425 161.115 C 132.642 142.808,132.743 141.213,134.019 136.000 C 140.472 109.636,160.834 89.882,187.000 84.600 C 188.760 84.245,190.371 83.785,190.580 83.577 C 191.259 82.903,209.318 83.101,210.654 83.798 M193.400 91.589 C 185.138 92.561,177.581 95.089,170.200 99.352 C 153.779 108.835,142.879 125.485,140.433 144.821 C 140.188 146.755,140.000 155.050,140.000 163.913 L 140.000 179.585 140.905 179.812 C 141.402 179.937,143.157 179.985,144.805 179.919 L 147.800 179.800 148.042 163.400 C 148.357 142.074,149.016 138.090,153.849 128.271 C 166.490 102.587,198.378 92.076,224.200 105.080 C 235.443 110.742,245.361 122.151,249.516 134.200 C 252.181 141.931,252.481 144.626,252.758 163.400 L 253.000 179.800 255.995 179.919 C 257.643 179.985,259.398 179.937,259.895 179.812 L 260.800 179.585 260.800 163.913 C 260.800 144.132,259.837 136.706,256.223 128.600 C 251.247 117.441,244.678 109.147,235.533 102.477 C 230.545 98.839,222.336 94.871,216.800 93.421 C 209.840 91.598,199.922 90.821,193.400 91.589 M193.800 107.701 C 175.462 110.644,161.386 124.069,156.999 142.800 C 156.075 146.745,155.553 178.379,156.395 179.394 C 157.160 180.315,243.640 180.315,244.405 179.394 C 245.247 178.379,244.725 146.745,243.801 142.800 C 238.282 119.234,216.634 104.037,193.800 107.701 M130.933 189.029 C 125.528 191.647,124.227 194.584,124.212 204.200 L 124.200 211.800 130.600 212.000 C 134.120 212.110,137.270 212.362,137.600 212.560 C 140.360 214.213,140.866 216.795,138.831 218.831 L 137.662 220.000 131.463 220.000 C 123.444 220.000,124.000 219.687,124.000 224.200 C 124.000 228.841,122.361 228.400,139.597 228.400 L 153.929 228.400 154.964 229.631 C 156.489 231.442,156.249 234.094,154.435 235.487 C 153.964 235.849,150.084 235.978,139.380 235.987 C 122.674 236.002,124.000 235.618,124.000 240.437 C 124.000 244.662,123.533 244.400,131.053 244.400 C 138.538 244.400,140.020 245.076,139.987 248.474 C 139.957 251.596,138.631 252.165,130.840 252.400 L 124.200 252.600 124.200 276.400 L 124.200 300.200 125.102 301.889 C 126.448 304.406,128.097 306.106,130.472 307.421 L 132.600 308.600 200.200 308.600 L 267.800 308.600 269.678 307.675 C 271.799 306.630,274.703 303.907,275.261 302.439 C 275.999 300.500,275.692 300.400,268.994 300.400 C 261.643 300.400,260.800 300.019,260.800 296.693 C 260.800 293.276,261.787 292.840,269.811 292.710 L 276.600 292.600 276.714 288.700 L 276.829 284.800 262.595 284.800 C 245.830 284.800,244.800 284.551,244.800 280.497 C 244.800 276.599,245.759 276.376,262.346 276.411 C 269.922 276.426,276.281 276.279,276.477 276.083 C 276.673 275.887,276.781 274.123,276.716 272.164 L 276.600 268.600 269.731 268.400 C 261.630 268.164,260.800 267.803,260.800 264.511 C 260.800 261.195,261.714 260.800,269.378 260.800 C 273.871 260.800,275.986 260.654,276.320 260.320 C 277.146 259.494,276.998 220.561,276.167 220.243 C 275.819 220.109,268.934 219.994,260.867 219.986 C 242.627 219.968,240.306 219.514,235.265 214.983 C 230.188 210.417,229.052 207.189,228.800 196.600 L 228.600 188.200 180.800 188.114 L 133.000 188.027 130.933 189.029 M236.554 188.576 C 235.779 190.595,236.622 203.045,237.682 205.237 C 240.767 211.616,242.234 212.033,261.144 211.905 L 276.600 211.800 276.570 204.200 C 276.532 194.596,275.528 192.211,270.253 189.185 L 268.200 188.008 252.487 188.004 C 239.184 188.001,236.741 188.088,236.554 188.576 M202.413 212.900 C 204.343 214.204,204.408 214.785,204.375 230.359 C 204.343 244.921,204.369 245.174,205.872 245.194 C 207.499 245.215,211.946 247.918,214.414 250.386 C 224.306 260.279,221.562 276.567,209.000 282.527 C 191.852 290.662,174.448 273.043,182.484 255.682 C 184.568 251.180,191.598 245.233,194.883 245.194 C 196.438 245.175,196.457 244.990,196.425 230.359 C 196.389 213.692,196.756 212.000,200.400 212.000 C 200.775 212.000,201.681 212.405,202.413 212.900 M196.036 253.129 C 183.805 257.780,187.131 276.371,200.200 276.398 C 204.691 276.408,211.200 272.751,211.200 270.218 C 211.200 269.946,211.492 269.138,211.848 268.424 C 212.747 266.623,212.418 261.239,211.272 258.969 C 208.555 253.590,201.718 250.969,196.036 253.129 " stroke="none" fill="#5c64fc" fill-rule="evenodd"></path></g></svg>